<svg width="1200" height="630" xmlns="http://www.w3.org/2000/svg">
  <defs>
    <linearGradient id="bg" x1="0%" y1="0%" x2="100%" y2="100%">
      <stop offset="0%" style="stop-color:#FFF8F0"/>
      <stop offset="100%" style="stop-color:#FFE8D0"/>
    </linearGradient>
    <linearGradient id="carrot" x1="0%" y1="0%" x2="100%" y2="100%">
      <stop offset="0%" style="stop-color:#FF8A3D"/>
      <stop offset="100%" style="stop-color:#FF6F0F"/>
    </linearGradient>
    <linearGradient id="leaf" x1="0%" y1="100%" x2="100%" y2="0%">
      <stop offset="0%" style="stop-color:#4CAF50"/>
      <stop offset="100%" style="stop-color:#66BB6A"/>
    </linearGradient>
  </defs>
  <rect width="1200" height="630" fill="url(#bg)"/>
  <!-- Carrot icon -->
  <g transform="translate(440, 80) scale(2.5)">
    <path d="M32 58c-2 0-3.5-1-4.5-3C24 48 20 38 19 32c-1.5-8 2-14 7-17s11-3 16 0 8.5 9 7 17c-1 6-5 16-8.5 23-1 2-2.5 3-4.5 3h-4z" fill="url(#carrot)"/>
    <path d="M32 18c-3-6-9-10-14-12 4-2 10 0 14 6" fill="url(#leaf)"/>
    <path d="M32 18c3-6 9-10 14-12-4-2-10 0-14 6" fill="url(#leaf)"/>
    <path d="M32 18c0-7 1-13 0-16 1 3 2 9 0 16" fill="url(#leaf)" opacity="0.8"/>
    <circle cx="44" cy="44" r="8" fill="white" opacity="0.9"/>
    <circle cx="44" cy="44" r="6" fill="none" stroke="#FF6F0F" stroke-width="2.5"/>
    <line x1="48.5" y1="48.5" x2="54" y2="54" stroke="#FF6F0F" stroke-width="2.5" stroke-linecap="round"/>
  </g>
  <!-- Title -->
  <text x="600" y="440" text-anchor="middle" font-family="system-ui, -apple-system, sans-serif" font-size="64" font-weight="700" fill="#1A1612">daangnFinder</text>
  <!-- Subtitle -->
  <text x="600" y="500" text-anchor="middle" font-family="system-ui, -apple-system, sans-serif" font-size="32" fill="#8C857C">시/구 단위 당근마켓 통합 검색</text>
</svg>
